<svg xmlns="http://www.w3.org/2000/svg" viewBox="10544 -10867 29.998 31.499"><defs><style>.a{fill:#1c1e24;}</style></defs><path class="a" d="M-18551-2912.5h-24a3,3,0,0,1-3-3V-2941a3,3,0,0,1,3-3h24a3,3,0,0,1,3,3v25.5A3,3,0,0,1-18551-2912.5Zm-22.562-8.667a.69.69,0,0,0-.689.69.69.69,0,0,0,.689.69h17.934a.69.69,0,0,0,.689-.69.69.69,0,0,0-.689-.69Zm-.125-5.134a.564.564,0,0,0-.564.564.564.564,0,0,0,.564.564h10.113a.555.555,0,0,0,.559-.564.562.562,0,0,0-.559-.564Zm.125-5.129a.693.693,0,0,0-.689.695.69.69,0,0,0,.689.69h12.889a.69.69,0,0,0,.689-.69.693.693,0,0,0-.689-.695Zm0-5.129a.69.69,0,0,0-.689.69.692.692,0,0,0,.689.695h16.7a.692.692,0,0,0,.689-.695.69.69,0,0,0-.689-.69Z" transform="translate(29122 -7923)"/></svg>